# Exported from ProBuilder
# http://www.procore3d.com/probuilder
# 8/15/2018 8:59:07 PM

mtllib ./TextureTest3.mtl
o TextureTest3

g TextureTest
v 233.803 9 126.666
v 218.8805 9 117.1987
v 221.0417 9 108.4139
v 246.0975 9 108.5855
v 233.803 37.55289 126.666
v 246.0975 37.55289 108.5855
v 221.0417 37.55289 108.4139
v 218.8805 37.55289 117.1987
v 218.8805 9 117.1987
v 221.0417 9 108.4139
v 218.8805 37.55289 117.1987
v 221.0417 37.55289 108.4139
v 233.803 9 126.666
v 218.8805 9 117.1987
v 233.803 37.55289 126.666
v 218.8805 37.55289 117.1987
v 221.0417 9 108.4139
v 246.0975 9 108.5855
v 221.0417 37.55289 108.4139
v 246.0975 37.55289 108.5855
v 246.0975 9 108.5855
v 233.803 9 126.666
v 246.0975 37.55289 108.5855
v 233.803 37.55289 126.666

vn 0 -1 0
vn 0 -1 0
vn 0 -1 0
vn 0 -1 0
vn 0 0.9999999 0
vn 0 1 0
vn 0 0.9999999 0
vn 0 1 0
vn -0.971044 0 -0.2389011
vn -0.971044 0 -0.2389011
vn -0.971044 0 -0.2389011
vn -0.971044 0 -0.2389011
vn -0.5357148 0 0.844399
vn -0.5357148 0 0.844399
vn -0.5357148 0 0.844399
vn -0.5357148 0 0.844399
vn 0.006851615 0 -0.9999765
vn 0.006851615 0 -0.9999765
vn 0.006851615 0 -0.9999765
vn 0.006851615 0 -0.9999765
vn 0.8269297 0 0.5623053
vn 0.8269297 0 0.5623053
vn 0.8269297 0 0.5623053
vn 0.8269297 0 0.5623053

vt 0 0
vt -14.9225 -9.467331
vt -12.76122 -18.25215
vt 12.29457 -18.08047
vt 0 0
vt -12.29457 -18.08047
vt 12.76122 -18.25215
vt 14.9225 -9.467331
vt -9.868871 13.38417
vt -10.43429 13.38417
vt -9.868871 15.16873
vt -10.43429 15.16873
vt -6.627125 10.70734
vt -11.04521 10.70734
vt -6.627125 17.84556
vt -11.04521 17.84556
vt 12.88597 0
vt -12.1704 0
vt 12.88597 28.55289
vt -12.1704 28.55289
vt 21.86459 0
vt 0 0
vt 21.86459 28.55289
vt 0 28.55289

g TextureTest_0
usemtl Default_Prototype
f 2/2/2 3/3/3 4/4/4 1/1/1
f 19/19/19 20/20/20 18/18/18 17/17/17
f 23/23/23 24/24/24 22/22/22 21/21/21

g TextureTest_1
usemtl Default_Prototype_Ash
f 5/5/5 6/6/6 7/7/7 8/8/8

g TextureTest_2
usemtl Default_Prototype_Yellow
f 11/11/11 12/12/12 10/10/10 9/9/9

g TextureTest_3
usemtl Default_Prototype_Green
f 15/15/15 16/16/16 14/14/14 13/13/13

