# Exported from ProBuilder
# http://www.procore3d.com/probuilder
# 8/22/2018 9:55:47 PM

mtllib ./Dumpster.mtl
o Dumpster

g DumpsterOriginal
v -4 -2.5 2.5
v 4 -2.5 2.5
v -4 1.5 2.5
v 4 1.5 2.5
v 4 -2.5 2.5
v 4 -2.5 -2.5
v 4 1.5 2.5
v 4 2.5 -2.5
v 4 -2.5 -2.5
v -4 -2.5 -2.5
v 4 2.5 -2.5
v -4 2.5 -2.5
v -4 -2.5 -2.5
v -4 -2.5 2.5
v -4 2.5 -2.5
v -4 1.5 2.5
v -4 1.5 2.5
v 4 1.5 2.5
v -4 2.5 -2.5
v 4 2.5 -2.5
v -4 -2.5 -2.5
v 4 -2.5 -2.5
v -4 -2.5 2.5
v 4 -2.5 2.5

vn 0 0 1
vn 0 0 1
vn 0 0 1
vn 0 0 1
vn 1 0 0
vn 1 0 0
vn 1 0 0
vn 1 0 0
vn 0 0 -1
vn 0 0 -1
vn 0 0 -1
vn 0 0 -1
vn -1 0 0
vn -1 0 0
vn -1 0 0
vn -1 0 0
vn 0 0.9805807 0.1961161
vn 0 0.9805807 0.1961161
vn 0 0.9805807 0.1961161
vn 0 0.9805807 0.1961161
vn 0 -1 0
vn 0 -1 0
vn 0 -1 0
vn 0 -1 0

vt -0.01046085 -0.1372619
vt -10.01046 -0.1372619
vt -0.01046085 4.862738
vt -10.01046 4.862738
vt 6.40241 -0.01226139
vt 11.36335 -0.01226139
vt 6.40241 3.987739
vt 11.36335 4.987739
vt 9.656229 0.02004671
vt 6.656229 0.02004671
vt 9.656229 5.020047
vt 6.656229 5.020047
vt 11.33043 0.02004671
vt 6.330428 0.02004671
vt 11.33043 5.020047
vt 6.330428 4.020047
vt 4 -5.174391
vt -4 -5.17439
vt 4 -0.2745519
vt -4 -0.2745514
vt 4 -2.5
vt -4 -2.5
vt 4 2.5
vt -4 2.5

g DumpsterOriginal
usemtl CCC_Dumpster
f 1/1/1 2/2/2 4/4/4 3/3/3
f 5/5/5 6/6/6 8/8/8 7/7/7
f 9/9/9 10/10/10 12/12/12 11/11/11
f 13/13/13 14/14/14 16/16/16 15/15/15
f 17/17/17 18/18/18 20/20/20 19/19/19
f 21/21/21 22/22/22 24/24/24 23/23/23

