# Exported from ProBuilder
# http://www.procore3d.com/probuilder
# 8/22/2018 9:23:31 AM

mtllib ./GroceryShelf.mtl
o GroceryShelf

g GroceryShelfOriginal
v -238 9 -18
v -242 9 -18
v -242 9 -34
v -238 9 -34
v -238 17 -18
v -242 17 -34
v -242 17 -18
v -238 17 -34
v -242 9 -34
v -238 9 -34
v -242 17 -34
v -238 17 -34
v -238 9 -34
v -238 9 -18
v -238 17 -34
v -238 17 -18
v -242 9 -18
v -242 9 -34
v -242 17 -18
v -242 17 -34
v -238 9 -18
v -242 9 -18
v -238 17 -18
v -242 17 -18

vn 0 -1 0
vn 0 -1 0
vn 0 -1 0
vn 0 -1 0
vn 0 1 0
vn 0 1 0
vn 0 1 0
vn 0 1 0
vn 0 0 -1
vn 0 0 -1
vn 0 0 -1
vn 0 0 -1
vn 1 0 0
vn 1 0 0
vn 1 0 0
vn 1 0 0
vn -1 0 0
vn -1 0 0
vn -1 0 0
vn -1 0 0
vn 0 0 1
vn 0 0 1
vn 0 0 1
vn 0 0 1

vt 3 -4.99545
vt 3 -2.49545
vt -7 -2.49545
vt -7 -4.99545
vt 7 -2.49545
vt -3 -4.99545
vt 7 -4.99545
vt -3 -2.49545
vt -0.46875 7.481511
vt -0.46875 9.950261
vt 4.46875 7.481511
vt 4.46875 9.950261
vt 12.625 0.1594796
vt 3.375 0.1594796
vt 12.625 4.78448
vt 3.375 4.78448
vt 12.61056 0.1594787
vt 3.360559 0.1594787
vt 12.61056 4.784479
vt 3.360559 4.784479
vt -4.46875 7.481511
vt -4.46875 9.950261
vt 0.46875 7.481511
vt 0.46875 9.950261

g GroceryShelfOriginal
usemtl CCC_MarketShelfAll
f 4/4/4 1/1/1 2/2/2 3/3/3
f 7/7/7 5/5/5 8/8/8 6/6/6
f 11/11/11 12/12/12 10/10/10 9/9/9
f 15/15/15 16/16/16 14/14/14 13/13/13
f 19/19/19 20/20/20 18/18/18 17/17/17
f 23/23/23 24/24/24 22/22/22 21/21/21

