# Exported from ProBuilder
# http://www.procore3d.com/probuilder
# 8/22/2018 5:28:35 PM

mtllib ./Produce.mtl
o Produce

g Produce_Original
v 0 0 0
v 4 0 0
v 0 1 0
v 4 3 0
v 4 0 0
v 4 0 -10.5
v 4 3 0
v 4 3 -10.5
v 4 0 -10.5
v 0 0 -10.5
v 4 3 -10.5
v 0 1 -10.5
v 0 0 -10.5
v 0 0 0
v 0 1 -10.5
v 0 1 0
v 0 1 0
v 4 3 0
v 0 1 -10.5
v 4 3 -10.5
v 0 0 -10.5
v 4 0 -10.5
v 0 0 0
v 4 0 0

vn 0 0 1
vn 0 0 1
vn 0 0 1
vn 0 0 1
vn 1 0 0
vn 1 0 0
vn 1 0 0
vn 1 0 0
vn 0 0 -1
vn 0 0 -1
vn 0 0 -1
vn 0 0 -1
vn -1 0 0
vn -1 0 0
vn -1 0 0
vn -1 0 0
vn -0.4472136 0.8944272 0
vn -0.4472136 0.8944272 0
vn -0.4472136 0.8944272 0
vn -0.4472136 0.8944272 0
vn 0 -1 0
vn 0 -1 0
vn 0 -1 0
vn 0 -1 0

vt 2.456656 -1.104209
vt -1.132836 -2.869301
vt 2.015383 -0.206836
vt -2.456655 -0.1771822
vt 5.25 -3.147596
vt -5.25 -3.147596
vt 5.25 -0.147596
vt -5.25 -0.147596
vt 1.124361 -2.848666
vt -2.458399 -1.069951
vt 2.458397 -0.1615957
vt -2.013721 -0.1742611
vt 5.249998 -1.163799
vt -5.250002 -1.163799
vt 5.249998 -0.163799
vt -5.250002 -0.163799
vt 0.07559395 0.2973871
vt 0.07559395 4.535815
vt 10.02688 0.2973871
vt 10.02688 4.535815
vt 2 -5.25
vt -2 -5.25
vt 2 5.25
vt -2 5.25

g Produce_Original
usemtl CCC_Produce
f 1/1/1 2/2/2 4/4/4 3/3/3
f 5/5/5 6/6/6 8/8/8 7/7/7
f 9/9/9 10/10/10 12/12/12 11/11/11
f 13/13/13 14/14/14 16/16/16 15/15/15
f 17/17/17 18/18/18 20/20/20 19/19/19
f 21/21/21 22/22/22 24/24/24 23/23/23

