# Exported from ProBuilder
# http://www.procore3d.com/probuilder
# 8/22/2018 9:39:10 AM

mtllib ./GroceryShelf000.mtl
o GroceryShelf000

g GroceryShelfOriginal
v 228 54 -20
v 228 54 -24
v 212 54 -24
v 212 54 -20
v 228 62 -20
v 212 62 -24
v 228 62 -24
v 212 62 -20
v 212 54 -24
v 212 54 -20
v 212 62 -24
v 212 62 -20
v 212 54 -20
v 228 54 -20
v 212 62 -20
v 228 62 -20
v 228 54 -24
v 212 54 -24
v 228 62 -24
v 212 62 -24
v 228 54 -20
v 228 54 -24
v 228 62 -20
v 228 62 -24

vn 0 -1 0
vn 0 -1 0
vn 0 -1 0
vn 0 -1 0
vn 0 1 0
vn 0 1 0
vn 0 1 0
vn 0 1 0
vn -1 0 1.192093E-07
vn -1 0 1.192093E-07
vn -1 0 1.192093E-07
vn -1 0 1.192093E-07
vn 1.192093E-07 0 1
vn 1.192093E-07 0 1
vn 1.192093E-07 0 1
vn 1.192093E-07 0 1
vn -1.192093E-07 0 -1
vn -1.192093E-07 0 -1
vn -1.192093E-07 0 -1
vn -1.192093E-07 0 -1
vn 1 0 -1.192093E-07
vn 1 0 -1.192093E-07
vn 1 0 -1.192093E-07
vn 1 0 -1.192093E-07

vt 3 -4.99545
vt 3 -2.49545
vt -7 -2.49545
vt -7 -4.99545
vt 7 -2.49545
vt -3 -4.99545
vt 7 -4.99545
vt -3 -2.49545
vt -0.46875 7.481511
vt -0.46875 9.950261
vt 4.46875 7.481511
vt 4.46875 9.950261
vt 12.625 0.1594796
vt 3.375 0.1594796
vt 12.625 4.78448
vt 3.375 4.78448
vt 12.61056 0.1594787
vt 3.360559 0.1594787
vt 12.61056 4.784479
vt 3.360559 4.784479
vt -4.46875 7.481511
vt -4.46875 9.950261
vt 0.46875 7.481511
vt 0.46875 9.950261

g GroceryShelfOriginal
usemtl CCC_MarketShelfAll
f 3/3/3 2/2/2 1/1/1 4/4/4
f 6/6/6 8/8/8 5/5/5 7/7/7
f 9/9/9 10/10/10 12/12/12 11/11/11
f 13/13/13 14/14/14 16/16/16 15/15/15
f 17/17/17 18/18/18 20/20/20 19/19/19
f 21/21/21 22/22/22 24/24/24 23/23/23

